<?xml version="1.0" encoding="UTF-8" standalone="no"?>
<svg
   height="48px"
   viewBox="0 -960 960 960"
   width="48px"
   fill="#e8eaed"
   version="1.1"
   id="svg4"
   sodipodi:docname="toggle_off.svg"
   xml:space="preserve"
   inkscape:version="1.2.2 (b0a8486541, 2022-12-01)"
   xmlns:inkscape="http://www.inkscape.org/namespaces/inkscape"
   xmlns:sodipodi="http://sodipodi.sourceforge.net/DTD/sodipodi-0.dtd"
   xmlns="http://www.w3.org/2000/svg"
   xmlns:svg="http://www.w3.org/2000/svg"><defs
     id="defs8" /><sodipodi:namedview
     id="namedview6"
     pagecolor="#ffffff"
     bordercolor="#000000"
     borderopacity="0.25"
     inkscape:showpageshadow="2"
     inkscape:pageopacity="0.0"
     inkscape:pagecheckerboard="0"
     inkscape:deskcolor="#d1d1d1"
     showgrid="false"
     inkscape:zoom="16.291667"
     inkscape:cx="23.785166"
     inkscape:cy="24"
     inkscape:window-width="1842"
     inkscape:window-height="1043"
     inkscape:window-x="0"
     inkscape:window-y="0"
     inkscape:window-maximized="1"
     inkscape:current-layer="svg4" /><path
     d="m 480,-340 q 58,0 99,-41 41,-41 41,-99 0,-58 -41,-99 -41,-41 -99,-41 -58,0 -99,41 -41,41 -41,99 0,58 41,99 41,41 99,41 z m 0,60 q -83,0 -141.5,-58.5 Q 280,-397 280,-480 280,-563 338.5,-621.5 397,-680 480,-680 q 83,0 141.5,58.5 58.5,58.5 58.5,141.5 0,83 -58.5,141.5 Q 563,-280 480,-280 Z M 200,-450 H 40 v -60 h 160 z m 720,0 H 760 v -60 H 920 Z M 450,-760 v -160 h 60 v 160 z m 0,720 v -160 h 60 v 160 z m -188,-618 -100,-97 43,-44 96,100 z m 494,496 -98,-100 41,-41 99,98 z m -99,-537 98,-99 44,42 -99,98 z m -495,494 99,-98 42,42 -98,99 z m 318,-275 z"
     id="light"
     style="fill:#000000"
     inkscape:label="light"
     transform="matrix(0.3535424,0,0,0.3535424,514.2966,-310.29964)" /><path
     style="fill:#000000;stroke:#f9f9f9;stroke-width:0;stroke-linecap:round;stroke-miterlimit:1"
     d="M 12.890025,28.911762 C 11.086242,28.51487 9.614633,27.129084 9.1043971,25.34691 8.9048351,24.64987 8.9036003,23.354268 9.1018388,22.662415 9.564822,21.046601 10.7785,19.774081 12.368286,19.237599 c 0.496626,-0.167589 0.696972,-0.201122 1.350675,-0.226071 1.513063,-0.05774 2.581793,0.334472 3.6412,1.336298 1.082413,1.023581 1.581265,2.162912 1.585652,3.621483 0.0028,0.916183 -0.120489,1.458109 -0.516495,2.2711 -0.281655,0.578231 -0.377458,0.707615 -0.931729,1.258312 -0.8438,0.838359 -1.484676,1.198661 -2.502674,1.407007 -0.566629,0.115968 -1.591909,0.118907 -2.10489,0.006 z"
     id="dot"
     transform="matrix(20,0,0,20,0,-960)"
     inkscape:label="dot"><desc
       id="desc289">The Switch Dot.
</desc></path><path
     style="fill:#000000;stroke:#f9f9f9;stroke-width:0;stroke-linecap:round;stroke-miterlimit:1"
     d="M 13.16624,35.934174 C 11.196199,35.820937 9.1611558,35.169797 7.611253,34.156782 5.8908386,33.03232 4.3184627,31.342068 3.3874812,29.616368 2.4928778,27.958099 2.0562659,26.116043 2.0562659,24 c 0,-2.658787 0.6785566,-4.852091 2.1353166,-6.902003 0.4776016,-0.672067 1.670264,-1.93176 2.3416203,-2.473225 1.957843,-1.579047 4.1304472,-2.402412 6.7614372,-2.562422 1.341291,-0.08157 20.069428,-0.08157 21.410719,0 2.63099,0.16001 4.803594,0.983375 6.761437,2.562422 0.671357,0.541465 1.864019,1.801158 2.34162,2.473225 1.011873,1.423878 1.627364,2.878813 1.959042,4.630903 0.16103,0.850646 0.224732,2.803604 0.120391,3.690914 -0.271768,2.31107 -1.052916,4.207067 -2.462352,5.976605 -0.472688,0.593457 -1.629295,1.739422 -2.177416,2.157383 -1.941813,1.480696 -4.026319,2.236305 -6.578068,2.384472 -1.218232,0.07074 -20.264989,0.0671 -21.503773,-0.0041 z m 21.572745,-2.943998 c 0.925224,-0.07513 1.457102,-0.178717 2.228058,-0.433929 1.914326,-0.633705 3.70903,-2.091804 4.81255,-3.909934 0.836694,-1.378513 1.22507,-2.851506 1.22507,-4.646313 0,-2.225638 -0.609289,-4.004866 -1.937325,-5.657326 -1.313669,-1.634583 -3.133456,-2.763811 -5.12872,-3.18251 C 34.973497,14.957637 33.896691,14.940522 23.386189,14.96066 11.673732,14.9831 12.550168,14.94869 11.048593,15.445119 9.7187943,15.884761 8.6999004,16.528566 7.6116756,17.61679 c -0.3715879,0.371588 -0.8355135,0.900986 -1.0309458,1.17644 -0.7423725,1.046343 -1.2857233,2.3854 -1.4887949,3.669048 -0.1259555,0.796185 -0.1259555,2.279258 0,3.075443 0.2030716,1.283648 0.7464224,2.622705 1.4887949,3.669048 0.4560465,0.642779 1.5646067,1.751339 2.207385,2.207385 1.2739372,0.903849 2.7764102,1.443349 4.3863802,1.575038 0.907814,0.07426 20.651061,0.07516 21.56449,9.82e-4 z"
     id="switch"
     transform="matrix(20,0,0,20,0,-960)"
     inkscape:label="switch" /></svg>
