<?xml version="1.0" encoding="UTF-8" standalone="no"?>
<svg
   height="48px"
   viewBox="0 -960 960 960"
   width="48px"
   fill="#e8eaed"
   version="1.1"
   id="svg4"
   sodipodi:docname="toggle_on.svg"
   xml:space="preserve"
   inkscape:version="1.2.2 (b0a8486541, 2022-12-01)"
   xmlns:inkscape="http://www.inkscape.org/namespaces/inkscape"
   xmlns:sodipodi="http://sodipodi.sourceforge.net/DTD/sodipodi-0.dtd"
   xmlns="http://www.w3.org/2000/svg"
   xmlns:svg="http://www.w3.org/2000/svg"><defs
     id="defs8" /><sodipodi:namedview
     id="namedview6"
     pagecolor="#ffffff"
     bordercolor="#000000"
     borderopacity="0.25"
     inkscape:showpageshadow="2"
     inkscape:pageopacity="0.0"
     inkscape:pagecheckerboard="0"
     inkscape:deskcolor="#d1d1d1"
     showgrid="false"
     inkscape:zoom="16.291667"
     inkscape:cx="23.662404"
     inkscape:cy="24"
     inkscape:window-width="1842"
     inkscape:window-height="1043"
     inkscape:window-x="0"
     inkscape:window-y="0"
     inkscape:window-maximized="1"
     inkscape:current-layer="svg4" /><path
     d="m 480,-120 q -150,0 -255,-105 -105,-105 -105,-255 0,-150 105,-255 105,-105 255,-105 8,0 17,0.5 9,0.5 23,1.5 -36,32 -56,79 -20,47 -20,99 0,90 63,153 63,63 153,63 52,0 99,-18.5 47,-18.5 79,-51.5 1,12 1.5,19.5 0.5,7.5 0.5,14.5 0,150 -105,255 -105,105 -255,105 z m 0,-60 q 109,0 190,-67.5 81,-67.5 101,-158.5 -25,11 -53.67,16.5 -28.66,5.5 -57.33,5.5 -114.69,0 -195.34,-80.66 Q 384,-545.31 384,-660 q 0,-24 5,-51.5 5,-27.5 18,-62.5 -98,27 -162.5,109.5 Q 180,-582 180,-480 q 0,125 87.5,212.5 Q 355,-180 480,-180 Z m -4,-297 z"
     id="dark"
     style="fill:#000000"
     inkscape:label="dark"
     transform="matrix(0.3868154,0,0,0.3868154,86.29476,-294.32864)" /><path
     style="fill:#000000;stroke:#f9f9f9;stroke-width:0;stroke-linecap:round;stroke-miterlimit:1"
     d="m 657.84989,-381.6714 c -36.07566,-7.93784 -65.50784,-35.65356 -75.71256,-71.29704 -3.99124,-13.9408 -4.01593,-39.85284 -0.0512,-53.6899 9.25966,-32.31628 33.53322,-57.76668 65.32894,-68.49632 9.93252,-3.35178 13.93944,-4.02244 27.0135,-4.52142 30.26126,-1.1548 51.63586,6.68944 72.824,26.72596 21.64826,20.47162 31.6253,43.25824 31.71304,72.42966 0.056,18.32366 -2.40978,29.16218 -10.3299,45.422 -5.6331,11.56462 -7.54916,14.1523 -18.63458,25.16624 -16.876,16.76718 -29.69352,23.97322 -50.05348,28.14014 -11.33258,2.31936 -31.83818,2.37814 -42.0978,0.12 z"
     id="dot"
     inkscape:label="dot" /><path
     style="fill:#000000;stroke:#f9f9f9;stroke-width:0;stroke-linecap:round;stroke-miterlimit:1"
     d="M 13.16624,35.934174 C 11.196199,35.820937 9.1611558,35.169797 7.611253,34.156782 5.8908386,33.03232 4.3184627,31.342068 3.3874812,29.616368 2.4928778,27.958099 2.0562659,26.116043 2.0562659,24 c 0,-2.658787 0.6785566,-4.852091 2.1353166,-6.902003 0.4776016,-0.672067 1.670264,-1.93176 2.3416203,-2.473225 1.957843,-1.579047 4.1304472,-2.402412 6.7614372,-2.562422 1.341291,-0.08157 20.069428,-0.08157 21.410719,0 2.63099,0.16001 4.803594,0.983375 6.761437,2.562422 0.671357,0.541465 1.864019,1.801158 2.34162,2.473225 1.011873,1.423878 1.627364,2.878813 1.959042,4.630903 0.16103,0.850646 0.224732,2.803604 0.120391,3.690914 -0.271768,2.31107 -1.052916,4.207067 -2.462352,5.976605 -0.472688,0.593457 -1.629295,1.739422 -2.177416,2.157383 -1.941813,1.480696 -4.026319,2.236305 -6.578068,2.384472 -1.218232,0.07074 -20.264989,0.0671 -21.503773,-0.0041 z m 21.572745,-2.943998 c 0.925224,-0.07513 1.457102,-0.178717 2.228058,-0.433929 1.914326,-0.633705 3.70903,-2.091804 4.81255,-3.909934 0.836694,-1.378513 1.22507,-2.851506 1.22507,-4.646313 0,-2.225638 -0.609289,-4.004866 -1.937325,-5.657326 -1.313669,-1.634583 -3.133456,-2.763811 -5.12872,-3.18251 C 34.973497,14.957637 33.896691,14.940522 23.386189,14.96066 11.673732,14.9831 12.550168,14.94869 11.048593,15.445119 9.7187943,15.884761 8.6999004,16.528566 7.6116756,17.61679 c -0.3715879,0.371588 -0.8355135,0.900986 -1.0309458,1.17644 -0.7423725,1.046343 -1.2857233,2.3854 -1.4887949,3.669048 -0.1259555,0.796185 -0.1259555,2.279258 0,3.075443 0.2030716,1.283648 0.7464224,2.622705 1.4887949,3.669048 0.4560465,0.642779 1.5646067,1.751339 2.207385,2.207385 1.2739372,0.903849 2.7764102,1.443349 4.3863802,1.575038 0.907814,0.07426 20.651061,0.07516 21.56449,9.82e-4 z"
     id="switch"
     transform="matrix(20,0,0,20,0.0493928,-959.90664)"
     inkscape:label="switch" /></svg>
